<svg width="309" height="118" viewBox="0 0 309 118" fill="none" xmlns="http://www.w3.org/2000/svg">
<rect y="1" width="20" height="20" rx="3" fill="#6EBF4B"/>
<path d="M6 10.5L8.5 13L13.5 8" stroke="white" stroke-width="1.5" stroke-linecap="round"/>
<path d="M37.74 18H38.96L40.52 13.92H47.42L49 18H50.22L44.6 3.4H43.36L37.74 18ZM43.98 4.94L47 12.82H40.94L43.98 4.94ZM62.183 18.2C63.723 18.2 65.423 17.38 66.243 15.88V17.84C66.243 20.24 64.763 21.84 62.423 21.84C60.523 21.84 59.403 21.02 58.863 19.72L57.743 20.1C58.463 21.78 59.963 22.86 62.423 22.86C65.403 22.86 67.363 20.88 67.363 17.8V8H66.223V10.08C65.403 8.62 63.703 7.8 62.183 7.8C59.243 7.8 57.043 10.14 57.043 13C57.043 15.86 59.263 18.2 62.183 18.2ZM62.243 17.16C59.983 17.16 58.183 15.3 58.183 13C58.183 10.7 59.983 8.84 62.243 8.84C64.563 8.84 66.343 10.72 66.343 13C66.343 15.3 64.563 17.16 62.243 17.16ZM74.6173 18.2C76.2573 18.2 77.5973 17.38 78.2773 16.16V18H79.3973V8H78.2573V13.58C78.2573 15.62 76.7173 17.16 74.7173 17.16C72.5373 17.16 71.2973 15.74 71.2973 13.6V8H70.1573V13.6C70.1573 16.46 71.7973 18.2 74.6173 18.2ZM86.9486 18.2C88.4686 18.2 90.1686 17.38 90.9886 15.92V18H92.1286V8H90.9886V10.08C90.1686 8.62 88.4686 7.8 86.9486 7.8C84.0086 7.8 81.8086 10.14 81.8086 13C81.8086 15.86 84.0286 18.2 86.9486 18.2ZM87.0086 17.16C84.7486 17.16 82.9486 15.3 82.9486 13C82.9486 10.7 84.7486 8.84 87.0086 8.84C89.3286 8.84 91.1086 10.72 91.1086 13C91.1086 15.3 89.3286 17.16 87.0086 17.16ZM95.0997 18H96.2397V12.78C96.2397 10.38 97.3597 9.06 99.4797 9.06H100.42V8H99.4797C97.9397 8 96.7997 8.74 96.2197 9.94V8H95.0997V18ZM106.675 18.2C108.195 18.2 109.895 17.38 110.715 15.92V18H111.855V8H110.715V10.08C109.895 8.62 108.195 7.8 106.675 7.8C103.735 7.8 101.535 10.14 101.535 13C101.535 15.86 103.755 18.2 106.675 18.2ZM106.735 17.16C104.475 17.16 102.675 15.3 102.675 13C102.675 10.7 104.475 8.84 106.735 8.84C109.055 8.84 110.835 10.72 110.835 13C110.835 15.3 109.055 17.16 106.735 17.16ZM114.826 18H115.946V12.42C115.946 10.38 117.486 8.84 119.506 8.84C121.686 8.84 122.926 10.26 122.926 12.4V18H124.066V12.4C124.066 9.54 122.326 7.8 119.646 7.8C117.946 7.8 116.606 8.66 115.926 9.88V8H114.826V18ZM125.726 9.02H127.446V14.36C127.446 17.24 128.206 18 130.986 18H131.146V16.94C129.046 16.94 128.606 16.56 128.606 14.34V9.02H131.146V8H128.606V4.98L127.446 5.66V8H125.726V9.02ZM137.811 18.2C140.131 18.2 141.671 17.08 142.571 15.16L141.571 14.68C140.911 16.22 139.651 17.18 137.791 17.18C135.431 17.18 133.791 15.58 133.631 13.38H142.851V12.88C142.851 9.88 140.651 7.8 137.731 7.8C134.751 7.8 132.551 10.1 132.551 13.06C132.551 15.98 134.571 18.2 137.811 18.2ZM137.731 8.82C139.951 8.82 141.451 10.24 141.671 12.34H133.671C133.991 10.32 135.631 8.82 137.731 8.82ZM150.115 18.2C152.435 18.2 153.975 17.08 154.875 15.16L153.875 14.68C153.215 16.22 151.955 17.18 150.095 17.18C147.735 17.18 146.095 15.58 145.935 13.38H155.155V12.88C155.155 9.88 152.955 7.8 150.035 7.8C147.055 7.8 144.855 10.1 144.855 13.06C144.855 15.98 146.875 18.2 150.115 18.2ZM150.035 8.82C152.255 8.82 153.755 10.24 153.975 12.34H145.975C146.295 10.32 147.935 8.82 150.035 8.82ZM162.3 18.2C163.82 18.2 165.52 17.38 166.34 15.92V18H167.44V3.4H166.34V10.08C165.52 8.62 163.82 7.8 162.3 7.8C159.36 7.8 157.16 10.14 157.16 13C157.16 15.86 159.38 18.2 162.3 18.2ZM162.36 17.16C160.1 17.16 158.3 15.3 158.3 13C158.3 10.7 160.1 8.84 162.36 8.84C164.68 8.84 166.46 10.72 166.46 13C166.46 15.3 164.68 17.16 162.36 17.16ZM180.093 18.2C181.613 18.2 183.313 17.38 184.133 15.92V18H185.233V3.4H184.133V10.08C183.313 8.62 181.613 7.8 180.093 7.8C177.153 7.8 174.953 10.14 174.953 13C174.953 15.86 177.173 18.2 180.093 18.2ZM180.153 17.16C177.893 17.16 176.093 15.3 176.093 13C176.093 10.7 177.893 8.84 180.153 8.84C182.473 8.84 184.253 10.72 184.253 13C184.253 15.3 182.473 17.16 180.153 17.16ZM192.928 18.2C195.248 18.2 196.788 17.08 197.688 15.16L196.688 14.68C196.028 16.22 194.768 17.18 192.908 17.18C190.548 17.18 188.908 15.58 188.748 13.38H197.968V12.88C197.968 9.88 195.768 7.8 192.848 7.8C189.868 7.8 187.668 10.1 187.668 13.06C187.668 15.98 189.688 18.2 192.928 18.2ZM192.848 8.82C195.068 8.82 196.568 10.24 196.788 12.34H188.788C189.108 10.32 190.748 8.82 192.848 8.82ZM200.413 18H201.573V3.4H200.413V18ZM204.572 18H205.712V8H204.572V18ZM204.572 6.3H205.712V3.4H204.572V6.3ZM213.377 18.2C215.677 18.2 217.357 16.9 218.137 15.06L217.077 14.62C216.457 16.08 215.177 17.16 213.397 17.16C211.057 17.16 209.277 15.3 209.277 13C209.277 10.7 211.037 8.84 213.337 8.84C215.057 8.84 216.377 9.78 217.037 11.28L218.077 10.84C217.317 9.04 215.537 7.8 213.357 7.8C210.437 7.8 208.137 10.04 208.137 13C208.137 15.88 210.377 18.2 213.377 18.2ZM220.412 18H221.552V8H220.412V18ZM220.412 6.3H221.552V3.4H220.412V6.3ZM229.157 18.2C232.037 18.2 234.357 15.92 234.357 13C234.357 10.08 232.037 7.8 229.157 7.8C226.277 7.8 223.977 10.08 223.977 13C223.977 15.92 226.277 18.2 229.157 18.2ZM229.157 17.16C226.897 17.16 225.117 15.3 225.117 13C225.117 10.7 226.897 8.84 229.157 8.84C231.417 8.84 233.197 10.7 233.197 13C233.197 15.3 231.417 17.16 229.157 17.16ZM241.199 18.2C242.839 18.2 244.179 17.38 244.859 16.16V18H245.979V8H244.839V13.58C244.839 15.62 243.299 17.16 241.299 17.16C239.119 17.16 237.879 15.74 237.879 13.6V8H236.739V13.6C236.739 16.46 238.379 18.2 241.199 18.2ZM251.991 18.2C254.611 18.2 255.731 16.56 255.731 15.2C255.731 13.28 253.991 12.78 252.371 12.38C250.931 12.02 249.591 11.72 249.591 10.54C249.591 9.54 250.451 8.76 251.971 8.76C253.131 8.76 254.011 9.18 254.691 9.96L255.551 9.26C254.731 8.32 253.411 7.78 251.971 7.78C249.811 7.78 248.471 9.08 248.471 10.56C248.471 12.42 250.151 12.94 251.751 13.34C253.211 13.7 254.611 13.96 254.611 15.2C254.611 16.26 253.751 17.2 252.031 17.2C250.671 17.2 249.571 16.52 248.891 15.6L247.991 16.32C248.831 17.44 250.271 18.2 251.991 18.2ZM263.225 18H264.345V12.34C264.345 10.2 265.805 8.82 267.765 8.82C269.745 8.82 270.985 10.06 270.985 11.94V18H272.125V12.16C272.125 10.1 273.605 8.82 275.485 8.82C277.545 8.82 278.825 10.2 278.825 12.12V18H279.965V12.2C279.965 9.58 278.305 7.8 275.505 7.8C273.665 7.8 272.225 8.76 271.625 10.16C271.105 8.74 269.805 7.8 267.845 7.8C266.205 7.8 264.965 8.58 264.325 9.76V8H263.225V18ZM287.596 18.2C289.916 18.2 291.456 17.08 292.356 15.16L291.356 14.68C290.696 16.22 289.436 17.18 287.576 17.18C285.216 17.18 283.576 15.58 283.416 13.38H292.636V12.88C292.636 9.88 290.436 7.8 287.516 7.8C284.536 7.8 282.336 10.1 282.336 13.06C282.336 15.98 284.356 18.2 287.596 18.2ZM287.516 8.82C289.736 8.82 291.236 10.24 291.456 12.34H283.456C283.776 10.32 285.416 8.82 287.516 8.82ZM299.781 18.2C301.301 18.2 303.001 17.38 303.821 15.92V18H304.961V8H303.821V10.08C303.001 8.62 301.301 7.8 299.781 7.8C296.841 7.8 294.641 10.14 294.641 13C294.641 15.86 296.861 18.2 299.781 18.2ZM299.841 17.16C297.581 17.16 295.781 15.3 295.781 13C295.781 10.7 297.581 8.84 299.841 8.84C302.161 8.84 303.941 10.72 303.941 13C303.941 15.3 302.161 17.16 299.841 17.16ZM307.815 18H308.975V3.4H307.815V18Z" fill="#181D19"/>
<rect y="46" width="20" height="20" rx="3" fill="#6EBF4B"/>
<path d="M6 55.5L8.5 58L13.5 53" stroke="white" stroke-width="1.5" stroke-linecap="round"/>
<path d="M38.5 63H39.66V56.24H46.76V55.14H39.66V49.5H46.76V48.4H38.5V63ZM54.0589 63.2C56.9389 63.2 59.2589 60.92 59.2589 58C59.2589 55.08 56.9389 52.8 54.0589 52.8C51.1789 52.8 48.8789 55.08 48.8789 58C48.8789 60.92 51.1789 63.2 54.0589 63.2ZM54.0589 62.16C51.7989 62.16 50.0189 60.3 50.0189 58C50.0189 55.7 51.7989 53.84 54.0589 53.84C56.3189 53.84 58.0989 55.7 58.0989 58C58.0989 60.3 56.3189 62.16 54.0589 62.16ZM66.5394 63.2C69.4194 63.2 71.7394 60.92 71.7394 58C71.7394 55.08 69.4194 52.8 66.5394 52.8C63.6594 52.8 61.3594 55.08 61.3594 58C61.3594 60.92 63.6594 63.2 66.5394 63.2ZM66.5394 62.16C64.2794 62.16 62.4994 60.3 62.4994 58C62.4994 55.7 64.2794 53.84 66.5394 53.84C68.7994 53.84 70.5794 55.7 70.5794 58C70.5794 60.3 68.7994 62.16 66.5394 62.16ZM78.9798 63.2C80.4998 63.2 82.1998 62.38 83.0198 60.92V63H84.1198V48.4H83.0198V55.08C82.1998 53.62 80.4998 52.8 78.9798 52.8C76.0398 52.8 73.8398 55.14 73.8398 58C73.8398 60.86 76.0598 63.2 78.9798 63.2ZM79.0398 62.16C76.7798 62.16 74.9798 60.3 74.9798 58C74.9798 55.7 76.7798 53.84 79.0398 53.84C81.3598 53.84 83.1398 55.72 83.1398 58C83.1398 60.3 81.3598 62.16 79.0398 62.16ZM92.0528 63H93.1928V53H92.0528V63ZM92.0528 51.3H93.1928V48.4H92.0528V51.3ZM99.2172 63.2C101.837 63.2 102.957 61.56 102.957 60.2C102.957 58.28 101.217 57.78 99.5972 57.38C98.1572 57.02 96.8172 56.72 96.8172 55.54C96.8172 54.54 97.6772 53.76 99.1972 53.76C100.357 53.76 101.237 54.18 101.917 54.96L102.777 54.26C101.957 53.32 100.637 52.78 99.1972 52.78C97.0372 52.78 95.6972 54.08 95.6972 55.56C95.6972 57.42 97.3772 57.94 98.9772 58.34C100.437 58.7 101.837 58.96 101.837 60.2C101.837 61.26 100.977 62.2 99.2572 62.2C97.8972 62.2 96.7972 61.52 96.1172 60.6L95.2172 61.32C96.0572 62.44 97.4972 63.2 99.2172 63.2ZM115.171 63.2C116.711 63.2 118.411 62.38 119.231 60.88V62.84C119.231 65.24 117.751 66.84 115.411 66.84C113.511 66.84 112.391 66.02 111.851 64.72L110.731 65.1C111.451 66.78 112.951 67.86 115.411 67.86C118.391 67.86 120.351 65.88 120.351 62.8V53H119.211V55.08C118.391 53.62 116.691 52.8 115.171 52.8C112.231 52.8 110.031 55.14 110.031 58C110.031 60.86 112.251 63.2 115.171 63.2ZM115.231 62.16C112.971 62.16 111.171 60.3 111.171 58C111.171 55.7 112.971 53.84 115.231 53.84C117.551 53.84 119.331 55.72 119.331 58C119.331 60.3 117.551 62.16 115.231 62.16ZM127.606 63.2C129.246 63.2 130.586 62.38 131.266 61.16V63H132.386V53H131.246V58.58C131.246 60.62 129.706 62.16 127.706 62.16C125.526 62.16 124.286 60.74 124.286 58.6V53H123.146V58.6C123.146 61.46 124.786 63.2 127.606 63.2ZM139.937 63.2C141.457 63.2 143.157 62.38 143.977 60.92V63H145.117V53H143.977V55.08C143.157 53.62 141.457 52.8 139.937 52.8C136.997 52.8 134.797 55.14 134.797 58C134.797 60.86 137.017 63.2 139.937 63.2ZM139.997 62.16C137.737 62.16 135.937 60.3 135.937 58C135.937 55.7 137.737 53.84 139.997 53.84C142.317 53.84 144.097 55.72 144.097 58C144.097 60.3 142.317 62.16 139.997 62.16ZM148.088 63H149.228V57.78C149.228 55.38 150.348 54.06 152.468 54.06H153.408V53H152.468C150.928 53 149.788 53.74 149.208 54.94V53H148.088V63ZM159.663 63.2C161.183 63.2 162.883 62.38 163.703 60.92V63H164.843V53H163.703V55.08C162.883 53.62 161.183 52.8 159.663 52.8C156.723 52.8 154.523 55.14 154.523 58C154.523 60.86 156.743 63.2 159.663 63.2ZM159.723 62.16C157.463 62.16 155.663 60.3 155.663 58C155.663 55.7 157.463 53.84 159.723 53.84C162.043 53.84 163.823 55.72 163.823 58C163.823 60.3 162.043 62.16 159.723 62.16ZM167.815 63H168.935V57.42C168.935 55.38 170.475 53.84 172.495 53.84C174.675 53.84 175.915 55.26 175.915 57.4V63H177.055V57.4C177.055 54.54 175.315 52.8 172.635 52.8C170.935 52.8 169.595 53.66 168.915 54.88V53H167.815V63ZM178.714 54.02H180.434V59.36C180.434 62.24 181.194 63 183.974 63H184.134V61.94C182.034 61.94 181.594 61.56 181.594 59.34V54.02H184.134V53H181.594V49.98L180.434 50.66V53H178.714V54.02ZM190.799 63.2C193.119 63.2 194.659 62.08 195.559 60.16L194.559 59.68C193.899 61.22 192.639 62.18 190.779 62.18C188.419 62.18 186.779 60.58 186.619 58.38H195.839V57.88C195.839 54.88 193.639 52.8 190.719 52.8C187.739 52.8 185.539 55.1 185.539 58.06C185.539 60.98 187.559 63.2 190.799 63.2ZM190.719 53.82C192.939 53.82 194.439 55.24 194.659 57.34H186.659C186.979 55.32 188.619 53.82 190.719 53.82ZM203.104 63.2C205.424 63.2 206.964 62.08 207.864 60.16L206.864 59.68C206.204 61.22 204.944 62.18 203.084 62.18C200.724 62.18 199.084 60.58 198.924 58.38H208.144V57.88C208.144 54.88 205.944 52.8 203.024 52.8C200.044 52.8 197.844 55.1 197.844 58.06C197.844 60.98 199.864 63.2 203.104 63.2ZM203.024 53.82C205.244 53.82 206.744 55.24 206.964 57.34H198.964C199.284 55.32 200.924 53.82 203.024 53.82ZM215.288 63.2C216.808 63.2 218.508 62.38 219.328 60.92V63H220.428V48.4H219.328V55.08C218.508 53.62 216.808 52.8 215.288 52.8C212.348 52.8 210.148 55.14 210.148 58C210.148 60.86 212.368 63.2 215.288 63.2ZM215.348 62.16C213.088 62.16 211.288 60.3 211.288 58C211.288 55.7 213.088 53.84 215.348 53.84C217.668 53.84 219.448 55.72 219.448 58C219.448 60.3 217.668 62.16 215.348 62.16ZM228.381 63H229.521V57.42C229.521 55.38 231.061 53.84 233.061 53.84C235.261 53.84 236.481 55.26 236.481 57.4V63H237.641V57.4C237.641 54.54 235.881 52.8 233.221 52.8C231.541 52.8 230.201 53.64 229.501 54.84V48.4H228.381V63ZM241.304 67.62H242.524L248.984 53H247.744L244.224 61.14L240.444 53H239.184L243.604 62.44L241.304 67.62ZM255.191 63.2C256.731 63.2 258.431 62.38 259.251 60.88V62.84C259.251 65.24 257.771 66.84 255.431 66.84C253.531 66.84 252.411 66.02 251.871 64.72L250.751 65.1C251.471 66.78 252.971 67.86 255.431 67.86C258.411 67.86 260.371 65.88 260.371 62.8V53H259.231V55.08C258.411 53.62 256.711 52.8 255.191 52.8C252.251 52.8 250.051 55.14 250.051 58C250.051 60.86 252.271 63.2 255.191 63.2ZM255.251 62.16C252.991 62.16 251.191 60.3 251.191 58C251.191 55.7 252.991 53.84 255.251 53.84C257.571 53.84 259.351 55.72 259.351 58C259.351 60.3 257.571 62.16 255.251 62.16ZM263.205 63H264.345V53H263.205V63ZM263.205 51.3H264.345V48.4H263.205V51.3ZM272.03 63.2C274.35 63.2 275.89 62.08 276.79 60.16L275.79 59.68C275.13 61.22 273.87 62.18 272.01 62.18C269.65 62.18 268.01 60.58 267.85 58.38H277.07V57.88C277.07 54.88 274.87 52.8 271.95 52.8C268.97 52.8 266.77 55.1 266.77 58.06C266.77 60.98 268.79 63.2 272.03 63.2ZM271.95 53.82C274.17 53.82 275.67 55.24 275.89 57.34H267.89C268.21 55.32 269.85 53.82 271.95 53.82ZM279.494 63H280.614V57.42C280.614 55.38 282.154 53.84 284.174 53.84C286.354 53.84 287.594 55.26 287.594 57.4V63H288.734V57.4C288.734 54.54 286.994 52.8 284.314 52.8C282.614 52.8 281.274 53.66 280.594 54.88V53H279.494V63ZM291.525 63H292.665V53H291.525V63ZM291.525 51.3H292.665V48.4H291.525V51.3ZM300.33 63.2C302.63 63.2 304.31 61.9 305.09 60.06L304.03 59.62C303.41 61.08 302.13 62.16 300.35 62.16C298.01 62.16 296.23 60.3 296.23 58C296.23 55.7 297.99 53.84 300.29 53.84C302.01 53.84 303.33 54.78 303.99 56.28L305.03 55.84C304.27 54.04 302.49 52.8 300.31 52.8C297.39 52.8 295.09 55.04 295.09 58C295.09 60.88 297.33 63.2 300.33 63.2Z" fill="#181D19"/>
<rect y="91" width="20" height="20" rx="3" fill="#6EBF4B"/>
<path d="M6 100.5L8.5 103L13.5 98" stroke="white" stroke-width="1.5" stroke-linecap="round"/>
<path d="M45.56 108.2C48.5 108.2 50.92 106.62 52.2 104.26L51.18 103.74C50.14 105.74 48.12 107.1 45.56 107.1C42 107.1 39.24 104.22 39.24 100.7C39.24 97.18 42 94.28 45.56 94.28C47.92 94.28 49.92 95.58 51 97.46L52 96.88C50.68 94.68 48.3 93.2 45.56 93.2C41.42 93.2 38.06 96.56 38.06 100.7C38.06 104.84 41.42 108.2 45.56 108.2ZM59.3323 108.2C62.2123 108.2 64.5323 105.92 64.5323 103C64.5323 100.08 62.2123 97.8 59.3323 97.8C56.4523 97.8 54.1523 100.08 54.1523 103C54.1523 105.92 56.4523 108.2 59.3323 108.2ZM59.3323 107.16C57.0723 107.16 55.2923 105.3 55.2923 103C55.2923 100.7 57.0723 98.84 59.3323 98.84C61.5923 98.84 63.3723 100.7 63.3723 103C63.3723 105.3 61.5923 107.16 59.3323 107.16ZM71.8128 108.2C74.6928 108.2 77.0128 105.92 77.0128 103C77.0128 100.08 74.6928 97.8 71.8128 97.8C68.9328 97.8 66.6328 100.08 66.6328 103C66.6328 105.92 68.9328 108.2 71.8128 108.2ZM71.8128 107.16C69.5528 107.16 67.7728 105.3 67.7728 103C67.7728 100.7 69.5528 98.84 71.8128 98.84C74.0728 98.84 75.8528 100.7 75.8528 103C75.8528 105.3 74.0728 107.16 71.8128 107.16ZM86.5556 108H87.8956L83.6356 102.2L87.7156 98H86.2556L80.5756 103.9V93.4H79.4556V108H80.5756V105.22L82.8156 102.88L86.5556 108ZM93.9631 108.2C96.2831 108.2 97.8231 107.08 98.7231 105.16L97.7231 104.68C97.0631 106.22 95.8031 107.18 93.9431 107.18C91.5831 107.18 89.9431 105.58 89.7831 103.38H99.0031V102.88C99.0031 99.88 96.8031 97.8 93.8831 97.8C90.9031 97.8 88.7031 100.1 88.7031 103.06C88.7031 105.98 90.7231 108.2 93.9631 108.2ZM93.8831 98.82C96.1031 98.82 97.6031 100.24 97.8231 102.34H89.8231C90.1431 100.32 91.7831 98.82 93.8831 98.82ZM106.148 108.2C107.668 108.2 109.368 107.38 110.188 105.92V108H111.288V93.4H110.188V100.08C109.368 98.62 107.668 97.8 106.148 97.8C103.208 97.8 101.008 100.14 101.008 103C101.008 105.86 103.228 108.2 106.148 108.2ZM106.208 107.16C103.948 107.16 102.148 105.3 102.148 103C102.148 100.7 103.948 98.84 106.208 98.84C108.528 98.84 110.308 100.72 110.308 103C110.308 105.3 108.528 107.16 106.208 107.16ZM123.941 108.2C125.541 108.2 127.181 107.44 127.981 106V112.6H129.081V98H127.981V100.08C127.161 98.62 125.461 97.8 123.941 97.8C121.001 97.8 118.801 100.14 118.801 103C118.801 105.86 121.021 108.2 123.941 108.2ZM124.001 107.16C121.741 107.16 119.941 105.3 119.941 103C119.941 100.7 121.741 98.84 124.001 98.84C126.321 98.84 128.101 100.72 128.101 103C128.101 105.3 126.321 107.16 124.001 107.16ZM136.336 108.2C137.976 108.2 139.316 107.38 139.996 106.16V108H141.116V98H139.976V103.58C139.976 105.62 138.436 107.16 136.436 107.16C134.256 107.16 133.016 105.74 133.016 103.6V98H131.876V103.6C131.876 106.46 133.516 108.2 136.336 108.2ZM143.947 108H145.087V98H143.947V108ZM143.947 96.3H145.087V93.4H143.947V96.3ZM152.752 108.2C155.052 108.2 156.732 106.9 157.512 105.06L156.452 104.62C155.832 106.08 154.552 107.16 152.772 107.16C150.432 107.16 148.652 105.3 148.652 103C148.652 100.7 150.412 98.84 152.712 98.84C154.432 98.84 155.752 99.78 156.412 101.28L157.452 100.84C156.692 99.04 154.912 97.8 152.732 97.8C149.812 97.8 147.512 100.04 147.512 103C147.512 105.88 149.752 108.2 152.752 108.2ZM166.907 108H168.247L163.987 102.2L168.067 98H166.607L160.927 103.9V93.4H159.807V108H160.927V105.22L163.167 102.88L166.907 108ZM170.295 108H171.455V93.4H170.295V108ZM175.718 112.62H176.938L183.398 98H182.158L178.638 106.14L174.858 98H173.598L178.018 107.44L175.718 112.62Z" fill="#181D19"/>
</svg>
