<svg width="330" height="60" viewBox="0 0 330 60" fill="none" xmlns="http://www.w3.org/2000/svg">
<rect x="0.75" y="0.75" width="328.5" height="58.5" rx="29.25" fill="white" stroke="#F5F5F5" stroke-width="1.5"/>
<path d="M21.35 35H29.396V34.01H22.394V28.898H29.396V27.926H22.394V22.85H29.396V21.86H21.35V35ZM31.7721 35H32.7801V29.978C32.7801 28.142 34.1661 26.756 35.9841 26.756C37.9461 26.756 39.0621 28.034 39.0621 29.96V35H40.0881V29.96C40.0881 27.386 38.5221 25.82 36.1101 25.82C34.5801 25.82 33.3741 26.594 32.7621 27.692V26H31.7721V35ZM41.5819 26.918H43.1299V31.724C43.1299 34.316 43.8139 35 46.3159 35H46.4599V34.046C44.5699 34.046 44.1739 33.704 44.1739 31.706V26.918H46.4599V26H44.1739V23.282L43.1299 23.894V26H41.5819V26.918ZM52.4582 35.18C54.5462 35.18 55.9322 34.172 56.7422 32.444L55.8422 32.012C55.2482 33.398 54.1142 34.262 52.4402 34.262C50.3162 34.262 48.8402 32.822 48.6962 30.842H56.9942V30.392C56.9942 27.692 55.0142 25.82 52.3862 25.82C49.7042 25.82 47.7242 27.89 47.7242 30.554C47.7242 33.182 49.5422 35.18 52.4582 35.18ZM52.3862 26.738C54.3842 26.738 55.7342 28.016 55.9322 29.906H48.7322C49.0202 28.088 50.4962 26.738 52.3862 26.738ZM59.1764 35H60.2024V30.302C60.2024 28.142 61.2104 26.954 63.1184 26.954H63.9644V26H63.1184C61.7324 26 60.7064 26.666 60.1844 27.746V26H59.1764V35ZM71.8974 39.158H72.9954L78.8094 26H77.6934L74.5254 33.326L71.1234 26H69.9894L73.9674 34.496L71.8974 39.158ZM84.4311 35.18C87.0231 35.18 89.1111 33.128 89.1111 30.5C89.1111 27.872 87.0231 25.82 84.4311 25.82C81.8391 25.82 79.7691 27.872 79.7691 30.5C79.7691 33.128 81.8391 35.18 84.4311 35.18ZM84.4311 34.244C82.3971 34.244 80.7951 32.57 80.7951 30.5C80.7951 28.43 82.3971 26.756 84.4311 26.756C86.4651 26.756 88.0671 28.43 88.0671 30.5C88.0671 32.57 86.4651 34.244 84.4311 34.244ZM95.2697 35.18C96.7457 35.18 97.9517 34.442 98.5637 33.344V35H99.5717V26H98.5457V31.022C98.5457 32.858 97.1597 34.244 95.3597 34.244C93.3977 34.244 92.2817 32.966 92.2817 31.04V26H91.2557V31.04C91.2557 33.614 92.7317 35.18 95.2697 35.18ZM102.243 35H103.269V30.302C103.269 28.142 104.277 26.954 106.185 26.954H107.031V26H106.185C104.799 26 103.773 26.666 103.251 27.746V26H102.243V35ZM118.06 35.18C120.148 35.18 121.534 34.172 122.344 32.444L121.444 32.012C120.85 33.398 119.716 34.262 118.042 34.262C115.918 34.262 114.442 32.822 114.298 30.842H122.596V30.392C122.596 27.692 120.616 25.82 117.988 25.82C115.306 25.82 113.326 27.89 113.326 30.554C113.326 33.182 115.144 35.18 118.06 35.18ZM117.988 26.738C119.986 26.738 121.336 28.016 121.534 29.906H114.334C114.622 28.088 116.098 26.738 117.988 26.738ZM124.778 35H125.786V29.906C125.786 27.98 127.1 26.738 128.864 26.738C130.646 26.738 131.762 27.854 131.762 29.546V35H132.788V29.744C132.788 27.89 134.12 26.738 135.812 26.738C137.666 26.738 138.818 27.98 138.818 29.708V35H139.844V29.78C139.844 27.422 138.35 25.82 135.83 25.82C134.174 25.82 132.878 26.684 132.338 27.944C131.87 26.666 130.7 25.82 128.936 25.82C127.46 25.82 126.344 26.522 125.768 27.584V26H124.778V35ZM146.604 35.18C147.972 35.18 149.502 34.442 150.24 33.128V35H151.266V26H150.24V27.872C149.502 26.558 147.972 25.82 146.604 25.82C143.958 25.82 141.978 27.926 141.978 30.5C141.978 33.074 143.976 35.18 146.604 35.18ZM146.658 34.244C144.624 34.244 143.004 32.57 143.004 30.5C143.004 28.43 144.624 26.756 146.658 26.756C148.746 26.756 150.348 28.448 150.348 30.5C150.348 32.57 148.746 34.244 146.658 34.244ZM153.817 35H154.843V26H153.817V35ZM153.817 24.47H154.843V21.86H153.817V24.47ZM157.544 35H158.588V21.86H157.544V35ZM161.075 35H162.119V32.534H161.075V35Z" fill="#8A8A8A"/>
</svg>
